<?xml version="1.0" encoding="UTF-8"?>
<svg id="Layer_2" xmlns="http://www.w3.org/2000/svg" viewBox="0 0 182.93 182.93">
  <defs>
    <style>
      .cls-1 {
        fill: #fff;
      }
    </style>
  </defs>
  <g id="Layer_1-2" data-name="Layer_1">
    <rect class="cls-1" width="182.93" height="182.93" rx="15.53" ry="15.53"/>
    <g>
      <path d="M60.01,133.69c-.29,0-.53-.24-.53-.53V29.58c0-.59-.47-1.06-1.06-1.06h-19.13c-.29,0-.53.24-.53.53v120.87c0,2.48,2.01,4.49,4.49,4.49h32.05c.41,0,.75-.29.82-.69l3.25-19.05c.09-.51-.31-.97-.82-.97h-18.55Z"/>
      <path d="M125.52,91.62v-.31s17.26-56.92,17.26-56.92l1.33-4.43c.2-.68-.31-1.36-1.01-1.36h-19.44c-.47,0-.88.31-1.02.76l-.72,2.43-7.24,23.9-2.7,8.81c-.1.33-.58.33-.68,0l-2.64-8.81-7.24-23.9-.9-2.82c-.07-.22-.27-.37-.5-.37h-19.24c-1.01,0-1.73.98-1.43,1.94l1.2,3.86,17.19,56.92v.31s-18.58,61.42-18.58,61.42c-.21.68.3,1.37,1.01,1.37h19.45c.46,0,.87-.3,1.01-.74l8.02-26.35,2.64-8.87c.1-.34.57-.34.68,0l2.7,8.87,7.96,26.33c.13.45.55.76,1.02.76h19.45c.71,0,1.22-.68,1.02-1.36l-18.6-61.43Z"/>
    </g>
  </g>
</svg>